HIERARCHY
ROOT Hips
{
  OFFSET 54.6972 84.4813 6.26461
  CHANNELS 6 Xposition Yposition Zposition Zrotation Xrotation Yrotation
  JOINT spine
  {
    OFFSET 0 5.95438 0.342407
    CHANNELS 3 Zrotation Xrotation Yrotation
    JOINT spine1
    {
      OFFSET 0 8.85602 0
      CHANNELS 3 Zrotation Xrotation Yrotation
      JOINT spine2
      {
        OFFSET 0 8.48567 0
        CHANNELS 3 Zrotation Xrotation Yrotation
        JOINT Neck
        {
          OFFSET 0 21.7863 1.0387
          CHANNELS 3 Zrotation Xrotation Yrotation
          JOINT Head
          {
            OFFSET 0 6.5822 0
            CHANNELS 3 Zrotation Xrotation Yrotation
            End Site
            {
              OFFSET 0 15.9326 -5.25436
            }
          }
        }
        JOINT RightShoulder
        {
          OFFSET -3.57307 9.16386 -0.497525
          CHANNELS 3 Zrotation Xrotation Yrotation
          JOINT RightArm
          {
            OFFSET 0 12.0192 0
            CHANNELS 3 Zrotation Xrotation Yrotation
            JOINT RightArmRoll
            {
              OFFSET 0 6.06754 0
              CHANNELS 3 Zrotation Xrotation Yrotation
              JOINT RightForeArm
              {
                OFFSET 0 17.6726 0
                CHANNELS 3 Zrotation Xrotation Yrotation
                JOINT RightForeArmRoll
                {
                  OFFSET 0 6.80872 0
                  CHANNELS 3 Zrotation Xrotation Yrotation
                  JOINT RightHand
                  {
                    OFFSET 0 13.6636 0
                    CHANNELS 3 Zrotation Xrotation Yrotation
                    End Site
                    {
                      OFFSET 0 0 0
                    }
                  }
                }
              }
            }
          }
        }
        JOINT LeftShoulder
        {
          OFFSET 3.57307 9.16386 -0.497525
          CHANNELS 3 Zrotation Xrotation Yrotation
          JOINT LeftArm
          {
            OFFSET 0 12.0192 0
            CHANNELS 3 Zrotation Xrotation Yrotation
            JOINT LeftArmRoll
            {
              OFFSET 0 6.06755 0
              CHANNELS 3 Zrotation Xrotation Yrotation
              JOINT LeftForeArm
              {
                OFFSET 0 17.6726 0
                CHANNELS 3 Zrotation Xrotation Yrotation
                JOINT LeftForeArmRoll
                {
                  OFFSET 0 6.80872 0
                  CHANNELS 3 Zrotation Xrotation Yrotation
                  JOINT LeftHand
                  {
                    OFFSET 0 13.6636 0
                    CHANNELS 3 Zrotation Xrotation Yrotation
                    End Site
                    {
                      OFFSET 0 0 0
                    }
                  }
                }
              }
            }
          }
        }
      }
    }
  }
  JOINT RightUpLeg
  {
    OFFSET -5.27774 -0.967797 -0.811858
    CHANNELS 3 Zrotation Xrotation Yrotation
    JOINT RightUpLegRoll
    {
      OFFSET 0 16.0214 0
      CHANNELS 3 Zrotation Xrotation Yrotation
      JOINT RightLeg
      {
        OFFSET 0 -19.8401 0
        CHANNELS 3 Zrotation Xrotation Yrotation
        JOINT RightLegRoll
        {
          OFFSET 0 19.905 0
          CHANNELS 3 Zrotation Xrotation Yrotation
          JOINT RightFoot
          {
            OFFSET 0 16.5675 0
            CHANNELS 3 Zrotation Xrotation Yrotation
            JOINT RightToeBase
            {
              OFFSET 0 13.8496 0
              CHANNELS 3 Zrotation Xrotation Yrotation
              End Site
              {
                OFFSET 0.00587034 6.70728 -0.773117
              }
            }
          }
        }
      }
    }
  }
  JOINT LeftUpLeg
  {
    OFFSET 5.27774 -0.967797 -0.811858
    CHANNELS 3 Zrotation Xrotation Yrotation
    JOINT LeftUpLegRoll
    {
      OFFSET 0 16.0215 0
      CHANNELS 3 Zrotation Xrotation Yrotation
      JOINT LeftLeg
      {
        OFFSET 0 19.84 0
        CHANNELS 3 Zrotation Xrotation Yrotation
        JOINT LeftLegRoll
        {
          OFFSET 0 20.089 0
          CHANNELS 3 Zrotation Xrotation Yrotation
          JOINT LeftFoot
          {
            OFFSET 0 16.3835 0
            CHANNELS 3 Zrotation Xrotation Yrotation
            JOINT LeftToeBase
            {
              OFFSET 0 13.8496 0
              CHANNELS 3 Zrotation Xrotation Yrotation
              End Site
              {
                OFFSET -0.0263083 6.70728 -0.773116
              }
            }
          }
        }
      }
    }
  }
}
MOTION
Frames: 9
Frame Time: 0.00208333
54.5251 84.521 2.99955 1.36157 -10.476 1.56223 0.221024 -0.619734 0.096602 0.442111 2.76367 0.172795 0.44047 4.4087 0.164289 -16.3466 4.35635 0.00507244 16.9435 8.33325 -4.28883 60.4665 1.50509 0.778576 126.86 33.9642 -50.2788 0 9.54166e-015 -0 -8.25462 72.5806 3.43666 1.66627e-007 -8.31561e-007 -2.99999 8.03009 -4.9514 0.697638 -72.8545 -6.40806 4.5608 -129.552 35.2109 50.5642 3.9815e-006 1.45052e-006 2.88808e-007 7.24013 69.0017 -2.38608 2.77723e-006 -5.32227e-006 3 -8.03009 -4.95138 -0.697626 176.901 -2.7312 5.20995 -180 7.01518e-015 178.803 176.589 11.9171 179.964 3.74321e-006 7.72164e-007 0.17288 -19.6949 69.1734 20.5897 8.13649 25.2327 -3.48773 -179.645 -3.71267 -0.391074 4.54188e-006 -4.6773e-006 -1.19698 -2.59247 -9.66808 0.0545504 -3.27435e-006 -2.08825e-006 -0.134095 19.1678 68.608 -20.0595 -8.13649 25.2327 3.48774 
54.5302 84.5187 3.00257 1.34895 -10.5061 1.55414 0.224822 -0.609242 0.0967422 0.44968 2.78465 0.172503 0.448051 4.42969 0.163701 -16.3667 4.3523 0.00813934 17.0011 8.2151 -4.2719 60.4368 1.46196 0.756915 126.771 33.945 -50.1534 2.22639e-014 2.22639e-014 1.59028e-014 -8.247 72.558 3.42928 1.66627e-007 -8.31561e-007 -2.99999 8.03009 -4.9514 0.697638 -72.8433 -6.46585 4.5876 -129.47 35.1871 50.4464 3.9815e-006 1.45052e-006 2.88809e-007 7.23204 68.9674 -2.37733 2.77723e-006 -5.32227e-006 3 -8.03009 -4.95138 -0.697626 176.914 -2.76183 5.20696 -180 7.01518e-015 178.802 176.59 11.9227 179.964 3.74321e-006 7.72164e-007 0.172885 -19.6974 69.1758 20.5924 8.13649 25.2327 -3.48773 -179.627 -3.75832 -0.409392 4.54188e-006 -4.6773e-006 -1.19714 -2.60165 -9.65218 0.0536398 -3.27435e-006 -2.08825e-006 -0.133594 19.16 68.5993 -20.051 -8.13649 25.2327 3.48774 
54.5323 84.5317 3.02958 1.33641 -10.5347 1.54598 0.2284 -0.599516 0.0968815 0.456829 2.80411 0.172225 0.455213 4.44914 0.163142 -16.3831 4.35681 0.0122309 17.0562 8.09178 -4.25329 60.4104 1.41904 0.734932 126.682 33.9273 -50.0264 9.54166e-015 9.54166e-015 6.36111e-015 -8.23807 72.5317 3.42053 1.66627e-007 -8.31561e-007 -2.99999 8.03009 -4.9514 0.697638 -72.8317 -6.52271 4.61397 -129.38 35.1663 50.3202 3.9815e-006 1.45052e-006 2.88809e-007 7.22422 68.9341 -2.36888 2.77723e-006 -5.32227e-006 3 -8.03009 -4.95138 -0.697626 176.928 -2.79112 5.20373 -180 7.01517e-015 178.801 176.592 11.9275 179.965 3.74321e-006 7.72164e-007 0.172891 -19.6995 69.1778 20.5947 8.13649 25.2327 -3.48773 -179.61 -3.80133 -0.42735 4.54188e-006 -4.6773e-006 -1.19728 -2.6106 -9.6377 0.0527451 -3.27435e-006 -2.08825e-006 -0.133131 19.1529 68.5912 -20.043 -8.13649 25.2327 3.48774 
54.5331 84.5116 3.01314 1.32416 -10.5611 1.53771 0.231698 -0.590763 0.09702 0.463448 2.82162 0.171974 0.461844 4.46665 0.162631 -16.3955 4.36976 0.0174616 17.1082 7.96542 -4.23309 60.3875 1.37708 0.713043 126.592 33.9105 -49.8973 9.54166e-015 -1.59028e-014 -1.59028e-014 -8.22801 72.502 3.41056 1.66627e-007 -8.31561e-007 -2.99999 8.03009 -4.9514 0.697638 -72.82 -6.5779 4.63956 -129.283 35.1485 50.1857 3.9815e-006 1.45052e-006 2.88809e-007 7.21659 68.9016 -2.36066 2.77723e-006 -5.32227e-006 3 -8.03009 -4.95138 -0.697626 176.941 -2.8184 5.20035 -180 7.01517e-015 178.8 176.593 11.9314 179.965 3.74321e-006 7.72164e-007 0.172896 -19.7012 69.1793 20.5966 8.13649 25.2327 -3.48773 -179.593 -3.84075 -0.444608 4.54188e-006 -4.6773e-006 -1.19741 -2.61916 -9.62502 0.0518807 -3.27435e-006 -2.08825e-006 -0.132715 19.1464 68.5839 -20.0359 -8.13649 25.2327 3.48774 
54.5284 84.5238 3.03024 1.31243 -10.5848 1.52926 0.234657 -0.58319 0.0971577 0.469422 2.83676 0.171765 0.46783 4.48179 0.162187 -16.4037 4.39104 0.0239461 17.1563 7.83818 -4.21141 60.3682 1.33683 0.691666 126.5 33.8938 -49.7655 2.22639e-014 3.18055e-014 2.22639e-014 -8.21699 72.4696 3.39955 1.66627e-007 -8.31561e-007 -2.99999 8.03009 -4.9514 0.697638 -72.8084 -6.63065 4.66402 -129.179 35.1337 50.0429 3.9815e-006 1.45052e-006 2.88809e-007 7.2091 68.8694 -2.35263 2.77723e-006 -5.32227e-006 3 -8.03009 -4.95138 -0.697626 176.954 -2.84298 5.19688 -180 7.01517e-015 178.8 176.594 11.9345 179.965 3.74321e-006 7.72164e-007 0.172902 -19.7023 69.1803 20.5979 8.13649 25.2327 -3.48773 -179.576 -3.87564 -0.460826 4.54188e-006 -4.6773e-006 -1.19754 -2.62718 -9.61452 0.0510613 -3.27435e-006 -2.08825e-006 -0.132356 19.1409 68.5776 -20.0297 -8.13649 25.2327 3.48774 
54.5375 84.5181 3.01786 1.30143 -10.6051 1.52058 0.237219 -0.577006 0.0972946 0.47464 2.84913 0.17161 0.473058 4.49416 0.161828 -16.4073 4.42052 0.0317991 17.2 7.71218 -4.18835 60.3529 1.29905 0.671215 126.407 33.8764 -49.6306 9.54166e-015 -1.27222e-014 -3.18055e-015 -8.20519 72.4349 3.38765 1.66627e-007 -8.31561e-007 -2.99999 8.03009 -4.9514 0.697638 -72.797 -6.68022 4.687 -129.069 35.1217 49.8918 3.9815e-006 1.45052e-006 2.88809e-007 7.20169 68.8374 -2.34473 2.77723e-006 -5.32227e-006 3 -8.03009 -4.95138 -0.697626 176.966 -2.86419 5.19342 -180 7.01517e-015 178.799 176.596 11.9366 179.965 3.74321e-006 7.72164e-007 0.172908 -19.7029 69.1806 20.5985 8.13649 25.2327 -3.48773 -179.561 -3.90504 -0.475667 4.54188e-006 -4.6773e-006 -1.19766 -2.63452 -9.60659 0.0503015 -3.27435e-006 -2.08825e-006 -0.132064 19.1363 68.5724 -20.0247 -8.13649 25.2327 3.48774 
54.5372 84.52 3.02364 1.29138 -10.6214 1.51161 0.239326 -0.572419 0.0974307 0.478989 2.85831 0.171523 0.477416 4.50334 0.161572 -16.4061 4.45809 0.0411354 17.2387 7.58959 -4.16402 60.3418 1.26449 0.652107 126.311 33.8577 -49.492 9.54166e-015 3.18055e-015 -9.54166e-015 -8.19277 72.3984 3.37503 1.66627e-007 -8.31561e-007 -2.99999 8.03009 -4.9514 0.697638 -72.7862 -6.72584 4.70816 -128.952 35.1127 49.7326 3.9815e-006 1.45052e-006 2.88809e-007 7.19428 68.8052 -2.33689 2.77723e-006 -5.32227e-006 3 -8.03009 -4.95138 -0.697626 176.976 -2.88133 5.19004 -180 7.01517e-015 178.798 176.597 11.9377 179.965 3.74321e-006 7.72164e-007 0.172914 -19.7027 69.1803 20.5984 8.13649 25.2327 -3.48773 -179.548 -3.92801 -0.48879 4.54188e-006 -4.6773e-006 -1.19778 -2.641 -9.6016 0.0496157 -3.27435e-006 -2.08825e-006 -0.13185 19.133 68.5687 -20.0211 -8.13649 25.2327 3.48774 
54.5429 84.5209 3.01949 1.2825 -10.6331 1.50229 0.240918 -0.569636 0.097566 0.482357 2.86388 0.171517 0.480791 4.50891 0.161439 -16.3997 4.50364 0.0520701 17.2717 7.47252 -4.1385 60.3351 1.23389 0.634758 126.212 33.8367 -49.3493 9.54166e-015 1.59028e-014 3.18055e-015 -8.1799 72.3607 3.36184 1.66627e-007 -8.31561e-007 -2.99999 8.03009 -4.9514 0.697638 -72.776 -6.76676 4.72713 -128.828 35.1065 49.5651 3.9815e-006 1.45052e-006 2.88808e-007 7.18682 68.7726 -2.32907 2.77723e-006 -5.32227e-006 3 -8.03009 -4.95138 -0.697626 176.986 -2.89375 5.18681 -180 7.01516e-015 178.797 176.598 11.9377 179.965 3.74321e-006 7.72164e-007 0.17292 -19.7019 69.1792 20.5976 8.13649 25.2327 -3.48773 -179.536 -3.94358 -0.499857 4.54188e-006 -4.6773e-006 -1.1979 -2.64649 -9.59993 0.0490186 -3.27435e-006 -2.08825e-006 -0.131724 19.131 68.5664 -20.019 -8.13649 25.2327 3.48774 
54.5343 84.5187 3.02648 1.27415 -10.6402 1.49238 0.241961 -0.568748 0.0977015 0.484704 2.86565 0.171593 0.483142 4.51068 0.161425 -16.386 4.56297 0.0651363 17.2989 7.35196 -4.11007 60.3357 1.20524 0.617563 126.114 33.8153 -49.2052 9.54166e-015 1.27222e-014 -0 -8.16493 72.3168 3.3464 1.66627e-007 -8.31561e-007 -2.99999 8.03009 -4.9514 0.697638 -72.7654 -6.80496 4.74482 -128.695 35.1016 49.387 3.9815e-006 1.45052e-006 2.88808e-007 7.17972 68.7414 -2.32169 2.77723e-006 -5.32227e-006 3 -8.03009 -4.95138 -0.697626 176.994 -2.90191 5.18322 -180 7.01516e-015 178.797 176.599 11.9359 179.964 3.74321e-006 7.72164e-007 0.172921 -19.7 69.1769 20.5956 8.13649 25.2327 -3.48773 -179.525 -3.95143 -0.509451 4.54188e-006 -4.6773e-006 -1.19802 -2.65111 -9.60239 0.0484958 -3.27435e-006 -2.08825e-006 -0.131706 19.1306 68.566 -20.0187 -8.13649 25.2327 3.48774 
